<?xml version="1.0" encoding="utf-8"?>
<!-- Generator: Adobe Illustrator 24.1.2, SVG Export Plug-In . SVG Version: 6.00 Build 0)  -->
<svg version="1.1" id="Layer_1" xmlns="http://www.w3.org/2000/svg" xmlns:xlink="http://www.w3.org/1999/xlink" x="0px" y="0px"
	 viewBox="0 0 100 100" style="enable-background:new 0 0 100 100;" xml:space="preserve">
<style type="text/css">
	.st0{fill:#FCF863;}
</style>
<g id="XMLID_56_">
	<path class="st0" d="M94.87,94.26c-0.11,0-0.23-0.01-0.34-0.04c-0.77-0.19-1.23-0.96-1.04-1.73c5.25-21.23,2.66-39.76-7.48-53.61
		c-6.28-8.56-13.63-12.9-16.11-14.19L4.44,90.14c-0.56,0.56-1.46,0.56-2.02,0c-0.56-0.56-0.56-1.46,0-2.02l66.87-66.87l0.89,0.39
		c0.41,0.18,10.03,4.51,18.12,15.55c7.44,10.15,14.85,28.09,7.95,55.98C96.1,93.82,95.51,94.26,94.87,94.26z"/>
	<path class="st0" d="M80.97,94.26c-0.13,0-0.25-0.02-0.38-0.05c-0.75-0.21-1.19-0.99-0.98-1.74c7.26-25.91,0.22-48.47-18.84-60.35
		c-0.66-0.41-0.87-1.28-0.45-1.95c0.41-0.66,1.28-0.86,1.95-0.45c20.18,12.57,27.68,36.32,20.06,63.51
		C82.15,93.85,81.58,94.26,80.97,94.26z"/>
	<g>
		<path id="XMLID_42_" class="st0" d="M59.09,57.59c0,3.73-3.03,6.76-6.76,6.76s-6.76-3.03-6.76-6.76s3.03-6.76,6.76-6.76
			S59.09,53.85,59.09,57.59z"/>
		<path class="st0" d="M52.32,65.78c-4.52,0-8.19-3.67-8.19-8.19c0-4.52,3.67-8.19,8.19-8.19c4.52,0,8.19,3.67,8.19,8.19
			C60.51,62.11,56.84,65.78,52.32,65.78z M52.32,52.26c-2.94,0-5.33,2.39-5.33,5.33s2.39,5.33,5.33,5.33c2.94,0,5.33-2.39,5.33-5.33
			S55.27,52.26,52.32,52.26z"/>
	</g>
	<g>
		<circle id="XMLID_39_" class="st0" cx="33.14" cy="82.5" r="6.76"/>
		<path class="st0" d="M33.14,90.69c-4.52,0-8.19-3.67-8.19-8.19c0-4.52,3.67-8.19,8.19-8.19c4.52,0,8.19,3.67,8.19,8.19
			C41.33,87.01,37.66,90.69,33.14,90.69z M33.14,77.16c-2.94,0-5.33,2.39-5.33,5.33c0,2.94,2.39,5.33,5.33,5.33s5.33-2.39,5.33-5.33
			C38.48,79.55,36.08,77.16,33.14,77.16z"/>
	</g>
	<g>
		<circle id="XMLID_2_" class="st0" cx="69.18" cy="78.18" r="6.76"/>
		<path class="st0" d="M69.18,86.37c-4.52,0-8.19-3.67-8.19-8.19s3.67-8.19,8.19-8.19c4.52,0,8.19,3.67,8.19,8.19
			S73.7,86.37,69.18,86.37z M69.18,72.85c-2.94,0-5.33,2.39-5.33,5.33s2.39,5.33,5.33,5.33c2.94,0,5.33-2.39,5.33-5.33
			S72.12,72.85,69.18,72.85z"/>
	</g>
</g>
</svg>
