<?xml version="1.0" encoding="utf-8"?>
<!-- Generator: Adobe Illustrator 24.1.2, SVG Export Plug-In . SVG Version: 6.00 Build 0)  -->
<svg version="1.1" id="Layer_1" xmlns="http://www.w3.org/2000/svg" xmlns:xlink="http://www.w3.org/1999/xlink" x="0px" y="0px"
	 viewBox="0 0 150 150" style="enable-background:new 0 0 150 150;" xml:space="preserve">
<style type="text/css">
	.st0{fill:#048C7F;}
	.st1{fill:#FCF863;}
</style>
<g>
	<path class="st0" d="M4.99,103c2.5-0.42,5.76-0.77,9.92-0.77c5.11,0,8.85,1.19,11.23,3.33c2.2,1.9,3.51,4.81,3.51,8.38
		c0,3.62-1.07,6.48-3.09,8.56c-2.73,2.91-7.19,4.4-12.24,4.4c-1.55,0-2.97-0.06-4.16-0.36v16.04H4.99V103z M10.16,122.31
		c1.13,0.3,2.56,0.42,4.28,0.42c6.24,0,10.04-3.03,10.04-8.56c0-5.29-3.74-7.84-9.45-7.84c-2.26,0-3.98,0.18-4.87,0.42V122.31z"/>
	<path class="st0" d="M41.77,102.52v40.05H36.6v-40.05H41.77z"/>
	<path class="st0" d="M48.07,139.54l22.22-32.5v-0.18H49.97v-4.34h27.04v3.15l-22.1,32.38v0.18h22.4v4.34H48.07V139.54z"/>
	<path class="st0" d="M80.93,139.54l22.22-32.5v-0.18H82.83v-4.34h27.03v3.15l-22.1,32.38v0.18h22.4v4.34H80.93V139.54z"/>
	<path class="st0" d="M123,129.97l-4.16,12.6h-5.35l13.61-40.05h6.24L147,142.57h-5.53l-4.28-12.6H123z M136.13,125.93l-3.92-11.53
		c-0.89-2.61-1.49-4.99-2.08-7.31h-0.12c-0.59,2.38-1.25,4.81-2.02,7.25l-3.92,11.59H136.13z"/>
</g>
<g id="XMLID_56_">
	<path class="st1" d="M140.28,95.44c-0.14,0-0.28-0.02-0.42-0.05c-0.93-0.23-1.49-1.17-1.26-2.09c6.36-25.71,3.23-48.17-9.07-64.94
		c-7.6-10.37-16.51-15.62-19.51-17.2l-79.3,79.3c-0.67,0.68-1.77,0.68-2.45,0c-0.68-0.68-0.68-1.77,0-2.45L109.29,7l1.08,0.48
		c0.49,0.22,12.15,5.47,21.95,18.83c9.01,12.29,17.99,34.04,9.63,67.82C141.76,94.92,141.06,95.44,140.28,95.44z"/>
	<path class="st1" d="M123.43,95.44c-0.15,0-0.31-0.02-0.46-0.06c-0.91-0.26-1.44-1.2-1.19-2.11c8.79-31.39,0.26-58.72-22.82-73.1
		c-0.8-0.5-1.05-1.56-0.55-2.36c0.5-0.8,1.56-1.05,2.36-0.55c24.45,15.23,33.53,43.99,24.31,76.93
		C124.87,94.95,124.18,95.44,123.43,95.44z"/>
	<g>
		<path id="XMLID_42_" class="st1" d="M96.93,51.02c0,4.52-3.67,8.19-8.19,8.19c-4.52,0-8.19-3.67-8.19-8.19s3.67-8.19,8.19-8.19
			C93.26,42.83,96.93,46.5,96.93,51.02z"/>
		<path class="st1" d="M88.74,60.94c-5.47,0-9.92-4.45-9.92-9.92c0-5.47,4.45-9.92,9.92-9.92c5.47,0,9.92,4.45,9.92,9.92
			C98.66,56.49,94.21,60.94,88.74,60.94z M88.74,44.56c-3.56,0-6.46,2.9-6.46,6.46c0,3.56,2.9,6.46,6.46,6.46
			c3.56,0,6.46-2.9,6.46-6.46C95.2,47.46,92.3,44.56,88.74,44.56z"/>
	</g>
	<g>
		<circle id="XMLID_39_" class="st1" cx="65.5" cy="81.19" r="8.19"/>
		<path class="st1" d="M65.5,91.12c-5.47,0-9.92-4.45-9.92-9.92c0-5.47,4.45-9.92,9.92-9.92c5.47,0,9.92,4.45,9.92,9.92
			C75.42,86.66,70.97,91.12,65.5,91.12z M65.5,74.73c-3.56,0-6.46,2.9-6.46,6.46c0,3.56,2.9,6.46,6.46,6.46
			c3.56,0,6.46-2.9,6.46-6.46C71.96,77.63,69.06,74.73,65.5,74.73z"/>
	</g>
	<g>
		<circle id="XMLID_2_" class="st1" cx="109.16" cy="75.97" r="8.19"/>
		<path class="st1" d="M109.16,85.89c-5.47,0-9.92-4.45-9.92-9.92s4.45-9.92,9.92-9.92s9.92,4.45,9.92,9.92
			S114.63,85.89,109.16,85.89z M109.16,69.51c-3.56,0-6.46,2.9-6.46,6.46s2.9,6.46,6.46,6.46c3.56,0,6.46-2.9,6.46-6.46
			S112.72,69.51,109.16,69.51z"/>
	</g>
</g>
</svg>
